<?xml version="1.0" encoding="UTF-8" standalone="no"?> <!-- Created with Vectornator for iOS (http://vectornator.io/) --><!DOCTYPE svg PUBLIC "-//W3C//DTD SVG 1.1//EN" "http://www.w3.org/Graphics/SVG/1.1/DTD/svg11.dtd">
<svg height="100%" style="fill-rule:nonzero;clip-rule:evenodd;stroke-linecap:round;stroke-linejoin:round;" xmlns:xlink="http://www.w3.org/1999/xlink" xmlns="http://www.w3.org/2000/svg" xml:space="preserve" width="100%" xmlns:vectornator="http://vectornator.io" version="1.1" viewBox="0 0 3840 2160">
<metadata>
<vectornator:setting key="DimensionsVisible" value="1"/>
<vectornator:setting key="PencilOnly" value="0"/>
<vectornator:setting key="SnapToPoints" value="0"/>
<vectornator:setting key="GuidesVisible" value="1"/>
<vectornator:setting key="RulersVisible" value="1"/>
<vectornator:setting key="OutlineMode" value="0"/>
<vectornator:setting key="SnapToEdges" value="0"/>
<vectornator:setting key="CMYKEnabledKey" value="0"/>
<vectornator:setting key="DisplayWhiteBackground" value="0"/>
<vectornator:setting key="doHistoryDisabled" value="0"/>
<vectornator:setting key="TimeLapseWatermarkDisabled" value="0"/>
<vectornator:setting key="SnapToGuides" value="1"/>
<vectornator:setting key="DynamicGuides" value="0"/>
<vectornator:setting key="Units" value="Pixels"/>
<vectornator:setting key="IsolateActiveLayer" value="0"/>
<vectornator:setting key="SnapToGrid" value="0"/>
</metadata>
<defs>
<linearGradient y1="1138.22" id="LinearGradient" x1="1745.63" y2="240.171" x2="1742.21" gradientUnits="userSpaceOnUse" gradientTransform="matrix(1.23661 0 0 1.23661 -179.248 -256.47)">
<stop stop-color="#f8ae00" offset="0"/>
<stop stop-color="#d30202" offset="1"/>
</linearGradient>
</defs>
<g id="Text" vectornator:layerName="Text">
<g opacity="1">
<path d="M985.593+1977.3C1007.01+1975.61+1036.88+1974.76+1075.2+1974.76C1076.33+1996.74+1078.02+2014.63+1080.27+2028.44C1082.52+2042.25+1084.07+2052.39+1084.92+2058.87C1085.76+2065.35+1086.47+2069.72+1087.03+2071.97L1060.83+2071.13C1001.65+2071.13+942.762+2076.48+884.152+2087.19C864.991+2091.13+847.521+2095.64+831.741+2100.72C845.267+1996.46+863.16+1886.85+885.42+1771.88C907.681+1656.91+926.701+1560.26+942.48+1481.93L1094.64+1461.64C1042.23+1683.68+1011.66+1820.06+1002.92+1870.78C994.187+1921.5+988.41+1957.01+985.593+1977.3Z" opacity="1" fill="#d30202"/>
<path d="M1089.57+2099.87L1202.84+1484.47L1476.73+1460.8C1472.79+1473.76+1469.41+1486.3+1466.59+1498.41C1463.77+1510.53+1460.95+1522.51+1458.14+1534.34C1455.32+1546.18+1453.06+1556.6+1451.37+1565.62C1434.47+1567.31+1411.36+1568.15+1382.06+1568.15L1323.73+1568.15L1293.29+1723.7C1324.29+1722+1350.21+1720.88+1371.07+1720.31C1391.92+1719.75+1405.44+1719.19+1411.64+1718.62C1409.39+1734.97+1407.27+1750.89+1405.3+1766.39C1403.33+1781.88+1400.93+1797.8+1398.12+1814.15C1391.92+1814.71+1382.34+1815.13+1369.38+1815.41C1356.41+1815.7+1342.89+1816.12+1328.8+1816.68C1314.71+1817.25+1298.93+1817.81+1281.46+1818.37L1251.87+1978.14L1377.83+1957.85L1369.38+2056.76L1089.57+2099.87Z" opacity="1" fill="#d30202"/>
<path d="M1442.15+2106.63C1468.07+1841.2+1482.73+1629.02+1486.11+1470.09C1527.81+1470.09+1568.11+1468.4+1606.99+1465.02L1620.52+1463.33C1614.32+1530.4+1608.96+1585.48+1604.46+1628.6C1599.95+1671.71+1596.43+1706.65+1593.89+1733.42C1591.35+1760.19+1588.96+1785.97+1586.7+1810.77C1582.76+1853.03+1578.53+1894.17+1574.02+1934.18L1590.09+1934.18L1686.45+1474.32C1702.23+1473.76+1717.73+1472.91+1732.95+1471.79C1748.16+1470.66+1763.66+1469.67+1779.44+1468.83C1795.22+1467.98+1809.87+1466.71+1823.4+1465.02C1799.16+1543.36+1778.17+1618.17+1760.42+1689.46C1742.67+1760.75+1727.17+1822.88+1713.93+1875.86C1700.68+1928.83+1685.04+1994.48+1667.01+2072.82L1442.15+2106.63Z" opacity="1" fill="#d30202"/>
<path d="M1721.24+2099.87L1834.51+1484.47L2108.4+1460.8C2104.46+1473.76+2101.08+1486.3+2098.26+1498.41C2095.44+1510.53+2092.62+1522.51+2089.8+1534.34C2086.99+1546.18+2084.73+1556.6+2083.04+1565.62C2066.13+1567.31+2043.03+1568.15+2013.72+1568.15L1955.4+1568.15L1924.96+1723.7C1955.96+1722+1981.88+1720.88+2002.73+1720.31C2023.59+1719.75+2037.11+1719.19+2043.31+1718.62C2041.06+1734.97+2038.94+1750.89+2036.97+1766.39C2035+1781.88+2032.6+1797.8+2029.79+1814.15C2023.59+1814.71+2014.01+1815.13+2001.04+1815.41C1988.08+1815.7+1974.56+1816.12+1960.47+1816.68C1946.38+1817.25+1930.6+1817.81+1913.13+1818.37L1883.54+1978.14L2009.5+1957.85L2001.04+2056.76L1721.24+2099.87Z" opacity="1" fill="#d30202"/>
<path d="M2164.84+1977.3C2186.25+1975.61+2216.12+1974.76+2254.44+1974.76C2255.57+1996.74+2257.26+2014.63+2259.51+2028.44C2261.77+2042.25+2263.32+2052.39+2264.16+2058.87C2265.01+2065.35+2265.71+2069.72+2266.28+2071.97L2240.07+2071.13C2180.9+2071.13+2122.01+2076.48+2063.4+2087.19C2044.23+2091.13+2026.76+2095.64+2010.98+2100.72C2024.51+1996.46+2042.4+1886.85+2064.66+1771.88C2086.92+1656.91+2105.94+1560.26+2121.72+1481.93L2273.88+1461.64C2221.47+1683.68+2190.9+1820.06+2182.17+1870.78C2173.43+1921.5+2167.65+1957.01+2164.84+1977.3Z" opacity="1" fill="#d30202"/>
<path d="M2484.25+1483.62C2496.65+1482.49+2511.16+1481.08+2527.79+1479.39C2544.41+1477.7+2560.76+1476.15+2576.82+1474.74C2592.88+1473.34+2609.64+1471.79+2627.11+1470.09C2612.46+1539.41+2600.91+1594.36+2592.46+1634.94C2584+1675.51+2577.24+1707.92+2572.17+1732.15C2567.1+1756.38+2562.59+1778.64+2558.64+1798.93C2549.62+1841.76+2543.71+1869.66+2540.89+1882.62C2532.44+1921.5+2528.21+1946.58+2528.21+1957.85C2528.21+1969.12+2530.6+1977.72+2535.4+1983.64C2540.19+1989.55+2546.67+1992.51+2554.84+1992.51C2563.01+1992.51+2570.34+1988.57+2576.82+1980.68C2583.3+1972.79+2588.65+1963.49+2592.88+1952.78C2597.1+1942.07+2600.35+1931.08+2602.6+1919.81C2604.85+1908.54+2607.25+1897.13+2609.78+1885.58C2612.32+1874.02+2615.7+1857.96+2619.93+1837.39C2624.16+1816.82+2628.38+1795.41+2632.61+1773.15C2636.84+1750.89+2641.2+1728.2+2645.71+1705.1C2657.55+1645.92+2671.35+1570.97+2687.13+1480.24L2818.16+1471.79L2813.93+1493.76C2807.17+1529.27+2799.7+1570.27+2791.53+1616.76C2783.36+1663.25+2775.89+1703.41+2769.13+1737.22C2751.66+1825.14+2738.7+1887.55+2730.25+1924.46C2721.79+1961.38+2710.1+1991.39+2695.16+2014.49C2680.23+2037.6+2662.9+2056.76+2643.18+2071.97C2605.42+2100.15+2561.74+2114.24+2512.15+2114.24C2481.72+2114.24+2455.51+2105.79+2433.53+2088.88C2408.74+2068.59+2396.34+2041.82+2396.34+2008.57C2396.34+2006.32+2396.34+2004.07+2396.34+2001.81C2396.34+1999.56+2397.04+1991.95+2398.45+1978.99C2399.86+1966.03+2403.1+1942.78+2408.17+1909.25C2413.24+1875.72+2418.74+1840.77+2424.66+1804.43C2430.57+1768.08+2436.91+1731.59+2443.68+1694.95C2450.44+1658.32+2456.64+1625.07+2462.27+1595.2C2474.67+1530.96+2482+1493.76+2484.25+1483.62Z" opacity="1" fill="#d30202"/>
<path d="M2714.56+2099.87C2773.73+1836.69+2814.31+1632.68+2836.29+1487.85C2898.28+1469.25+2944.77+1459.95+2975.77+1459.95C3006.76+1459.95+3031.14+1464.32+3048.89+1473.05C3066.64+1481.79+3081.15+1493.48+3092.43+1508.13C3112.15+1534.62+3122.01+1572.94+3122.01+1623.1C3122.01+1655.22+3116.09+1686.36+3104.26+1716.51C3092.43+1746.66+3076.65+1773.43+3056.92+1796.82C3037.2+1820.2+3014.37+1838.8+2988.45+1852.61C2962.53+1866.42+2935.76+1873.32+2908.14+1873.32L2898.84+1873.32C2888.14+1920.66+2876.58+1986.31+2864.18+2070.28L2714.56+2099.87ZM2956.33+1564.77C2941.67+1646.49+2928.43+1718.91+2916.6+1782.02C2936.88+1776.95+2955.76+1760.61+2973.23+1732.99C2992.39+1702.56+3001.97+1668.19+3001.97+1629.86C3001.97+1608.45+2997.18+1592.25+2987.6+1581.26C2978.02+1570.27+2967.6+1564.77+2956.33+1564.77Z" opacity="1" fill="#d30202"/>
</g>
</g>
<g id="Arrow" vectornator:layerName="Arrow">
<g opacity="1">
<path d="M1611.89+818.617L1459.16+1151.25L1583.98+1375.71L1764.1+1374.75L1772.8+817.965L1611.89+818.617ZM2341.91+817.965L2181.96+818.951L2190.65+1375.73L2370.77+1376.7L2494.67+1150.64L2341.91+817.965Z" opacity="1" fill="#d30202"/>
<path d="M1980.25+29.9836L2494.55+1150.9C2494.55+1150.9+2705.31+786.177+2755.63+702.44L2366.25+29.6106L1980.25+29.9836ZM1974.94+30.113L1587.5+31.0018L1198.12+703.87C1248.44+787.607+1459.2+1152.33+1459.2+1152.33L1974.94+30.113Z" opacity="1" fill="url(#LinearGradient)"/>
</g>
</g>
</svg>
