<?xml version="1.0" encoding="UTF-8" standalone="no"?>
<!DOCTYPE svg PUBLIC "-//W3C//DTD SVG 1.1//EN" "http://www.w3.org/Graphics/SVG/1.1/DTD/svg11.dtd">
<!-- Created with Vectornator (http://vectornator.io/) -->
<svg height="100%" stroke-miterlimit="10" style="fill-rule:nonzero;clip-rule:evenodd;stroke-linecap:round;stroke-linejoin:round;" version="1.1" viewBox="0 0 3840 3743.02" width="100%" xml:space="preserve" xmlns="http://www.w3.org/2000/svg" xmlns:vectornator="http://vectornator.io" xmlns:xlink="http://www.w3.org/1999/xlink">
<defs>
<filter color-interpolation-filters="sRGB" filterUnits="userSpaceOnUse" height="673.68" id="Filter" width="2313.16" x="751.974" y="1805.9">
<feDropShadow dx="-22.892" dy="19.3896" flood-color="#4b390e" flood-opacity="1" in="SourceGraphic" result="Shadow" stdDeviation="0"/>
</filter>
<linearGradient gradientTransform="matrix(1 0 0 1 -56.8755 345.95)" gradientUnits="userSpaceOnUse" id="LinearGradient" x1="960.487" x2="969.818" y1="2101.19" y2="1461.26">
<stop offset="0" stop-color="#ae8625"/>
<stop offset="0.397179" stop-color="#f7ef8a"/>
<stop offset="0.828317" stop-color="#d2ac47"/>
<stop offset="1" stop-color="#edc967"/>
</linearGradient>
<linearGradient gradientTransform="matrix(1 0 0 1 -56.8755 345.95)" gradientUnits="userSpaceOnUse" id="LinearGradient_2" x1="1270.21" x2="1276.3" y1="2103.03" y2="1460.96">
<stop offset="0" stop-color="#ae8625"/>
<stop offset="0.397179" stop-color="#f7ef8a"/>
<stop offset="0.828317" stop-color="#d2ac47"/>
<stop offset="1" stop-color="#edc967"/>
</linearGradient>
<linearGradient gradientTransform="matrix(1 0 0 1 -56.8755 345.95)" gradientUnits="userSpaceOnUse" id="LinearGradient_3" x1="1623.17" x2="1637.82" y1="2108.37" y2="1465.64">
<stop offset="0" stop-color="#ae8625"/>
<stop offset="0.397179" stop-color="#f7ef8a"/>
<stop offset="0.828317" stop-color="#d2ac47"/>
<stop offset="1" stop-color="#edc967"/>
</linearGradient>
<linearGradient gradientTransform="matrix(1 0 0 1 -56.8755 345.95)" gradientUnits="userSpaceOnUse" id="LinearGradient_4" x1="1913.78" x2="1912.71" y1="2100.38" y2="1460.97">
<stop offset="0" stop-color="#ae8625"/>
<stop offset="0.397179" stop-color="#f7ef8a"/>
<stop offset="0.828317" stop-color="#d2ac47"/>
<stop offset="1" stop-color="#edc967"/>
</linearGradient>
<linearGradient gradientTransform="matrix(1 0 0 1 -56.8755 345.95)" gradientUnits="userSpaceOnUse" id="LinearGradient_5" x1="2139.99" x2="2142.93" y1="2104.11" y2="1462.48">
<stop offset="0" stop-color="#ae8625"/>
<stop offset="0.397179" stop-color="#f7ef8a"/>
<stop offset="0.828317" stop-color="#d2ac47"/>
<stop offset="1" stop-color="#edc967"/>
</linearGradient>
<linearGradient gradientTransform="matrix(1 0 0 1 -56.8755 345.95)" gradientUnits="userSpaceOnUse" id="LinearGradient_6" x1="2606.64" x2="2616.54" y1="2112.88" y2="1469.36">
<stop offset="0" stop-color="#ae8625"/>
<stop offset="0.397179" stop-color="#f7ef8a"/>
<stop offset="0.828317" stop-color="#d2ac47"/>
<stop offset="1" stop-color="#edc967"/>
</linearGradient>
<linearGradient gradientTransform="matrix(1 0 0 1 -56.8755 345.95)" gradientUnits="userSpaceOnUse" id="LinearGradient_7" x1="2929.54" x2="2930.1" y1="2099.34" y2="1462.9">
<stop offset="0" stop-color="#ae8625"/>
<stop offset="0.397179" stop-color="#f7ef8a"/>
<stop offset="0.828317" stop-color="#d2ac47"/>
<stop offset="1" stop-color="#edc967"/>
</linearGradient>
<filter color-interpolation-filters="sRGB" filterUnits="userSpaceOnUse" height="1373.47" id="Filter_2" width="1587.51" x="1111.24" y="375.561">
<feDropShadow dx="-30" dy="-3.67394e-15" flood-color="#4b390e" flood-opacity="1" in="SourceGraphic" result="Shadow" stdDeviation="0"/>
</filter>
<linearGradient gradientTransform="matrix(1 0 0 1 -56.8755 345.95)" gradientUnits="userSpaceOnUse" id="LinearGradient_8" x1="1459.16" x2="2494.67" y1="1110.52" y2="1110.52">
<stop offset="0.040618" stop-color="#ae8625"/>
<stop offset="0.37077" stop-color="#f7ef8a"/>
<stop offset="0.83606" stop-color="#d2ac47"/>
<stop offset="1" stop-color="#edc967"/>
</linearGradient>
<linearGradient gradientTransform="matrix(1 0 0 1 -56.8755 345.95)" gradientUnits="userSpaceOnUse" id="LinearGradient_9" x1="1982.68" x2="1978.75" y1="1154.6" y2="29.8479">
<stop offset="0" stop-color="#ae8625"/>
<stop offset="0.397179" stop-color="#f7ef8a"/>
<stop offset="0.828317" stop-color="#d2ac47"/>
<stop offset="1" stop-color="#edc967"/>
</linearGradient>
<linearGradient gradientTransform="matrix(1 0 0 1 -2205.62 1518.59)" gradientUnits="userSpaceOnUse" id="LinearGradient_10" x1="4047.52" x2="4076.47" y1="1710.28" y2="1022.2">
<stop offset="0.040618" stop-color="#ae8625"/>
<stop offset="0.37077" stop-color="#f7ef8a"/>
<stop offset="0.83606" stop-color="#d2ac47"/>
<stop offset="1" stop-color="#edc967"/>
</linearGradient>
<filter color-interpolation-filters="sRGB" filterUnits="userSpaceOnUse" height="720.757" id="Filter_3" width="2152.48" x="795.084" y="2525.07">
<feDropShadow dx="-22.892" dy="19.3896" flood-color="#4b390e" flood-opacity="1" in="SourceGraphic" result="Shadow" stdDeviation="0"/>
</filter>
</defs>
<g id="Text" vectornator:layerName="Text">
<g filter="url(#Filter)" vectornator:layerName="g" vectornator:shadowAngle="2.43884" vectornator:shadowColor="#4b390e" vectornator:shadowOffset="30" vectornator:shadowOpacity="1" vectornator:shadowRadius="0">
<g opacity="1" vectornator:layerName="Group 1">
<path d="M928.717 2323.25C950.134 2321.56 980.004 2320.71 1018.32 2320.71C1019.45 2342.69 1021.14 2360.58 1023.39 2374.39C1025.64 2388.2 1027.19 2398.34 1028.04 2404.82C1028.88 2411.3 1029.59 2415.67 1030.15 2417.92L1003.95 2417.08C944.775 2417.08 885.887 2422.43 827.276 2433.14C808.116 2437.08 790.645 2441.59 774.866 2446.67C788.392 2342.41 806.284 2232.8 828.544 2117.83C850.806 2002.86 869.825 1906.21 885.604 1827.88L1037.76 1807.59C985.354 2029.63 954.784 2166.01 946.044 2216.73C937.311 2267.45 931.534 2302.96 928.717 2323.25Z" fill="url(#LinearGradient)" fill-rule="nonzero" opacity="1" stroke="none" vectornator:layerName="path"/>
<path d="M1032.69 2445.82L1145.96 1830.42L1419.85 1806.75C1415.91 1819.71 1412.53 1832.25 1409.71 1844.36C1406.89 1856.48 1404.07 1868.46 1401.26 1880.29C1398.44 1892.13 1396.18 1902.55 1394.49 1911.57C1377.59 1913.26 1354.48 1914.1 1325.18 1914.1L1266.85 1914.1L1236.41 2069.65C1267.41 2067.95 1293.33 2066.83 1314.19 2066.26C1335.04 2065.7 1348.56 2065.14 1354.76 2064.57C1352.51 2080.92 1350.39 2096.84 1348.42 2112.34C1346.45 2127.83 1344.05 2143.75 1341.24 2160.1C1335.04 2160.66 1325.46 2161.08 1312.5 2161.36C1299.53 2161.65 1286.01 2162.07 1271.92 2162.63C1257.83 2163.2 1242.05 2163.76 1224.58 2164.32L1194.99 2324.09L1320.95 2303.8L1312.5 2402.71L1032.69 2445.82Z" fill="url(#LinearGradient_2)" fill-rule="nonzero" opacity="1" stroke="none" vectornator:layerName="path"/>
<path d="M1385.27 2452.58C1411.19 2187.15 1425.85 1974.97 1429.23 1816.04C1470.93 1816.04 1511.23 1814.35 1550.11 1810.97L1563.64 1809.28C1557.44 1876.35 1552.08 1931.43 1547.58 1974.55C1543.07 2017.66 1539.55 2052.6 1537.01 2079.37C1534.47 2106.14 1532.08 2131.92 1529.82 2156.72C1525.88 2198.98 1521.65 2240.12 1517.14 2280.13L1533.21 2280.13L1629.57 1820.27C1645.35 1819.71 1660.85 1818.86 1676.07 1817.74C1691.28 1816.61 1706.78 1815.62 1722.56 1814.78C1738.34 1813.93 1752.99 1812.66 1766.52 1810.97C1742.28 1889.31 1721.29 1964.12 1703.54 2035.41C1685.79 2106.7 1670.29 2168.83 1657.05 2221.81C1643.8 2274.78 1628.16 2340.43 1610.13 2418.77L1385.27 2452.58Z" fill="url(#LinearGradient_3)" fill-rule="nonzero" opacity="1" stroke="none" vectornator:layerName="path"/>
<path d="M1664.36 2445.82L1777.63 1830.42L2051.52 1806.75C2047.58 1819.71 2044.2 1832.25 2041.38 1844.36C2038.56 1856.48 2035.74 1868.46 2032.92 1880.29C2030.11 1892.13 2027.85 1902.55 2026.16 1911.57C2009.25 1913.26 1986.15 1914.1 1956.84 1914.1L1898.52 1914.1L1868.08 2069.65C1899.08 2067.95 1925 2066.83 1945.85 2066.26C1966.71 2065.7 1980.23 2065.14 1986.43 2064.57C1984.18 2080.92 1982.06 2096.84 1980.09 2112.34C1978.12 2127.83 1975.72 2143.75 1972.91 2160.1C1966.71 2160.66 1957.13 2161.08 1944.16 2161.36C1931.2 2161.65 1917.68 2162.07 1903.59 2162.63C1889.5 2163.2 1873.72 2163.76 1856.25 2164.32L1826.66 2324.09L1952.62 2303.8L1944.16 2402.71L1664.36 2445.82Z" fill="url(#LinearGradient_4)" fill-rule="nonzero" opacity="1" stroke="none" vectornator:layerName="path"/>
<path d="M2107.96 2323.25C2129.37 2321.56 2159.24 2320.71 2197.56 2320.71C2198.69 2342.69 2200.38 2360.58 2202.63 2374.39C2204.89 2388.2 2206.44 2398.34 2207.28 2404.82C2208.13 2411.3 2208.83 2415.67 2209.4 2417.92L2183.19 2417.08C2124.02 2417.08 2065.13 2422.43 2006.52 2433.14C1987.35 2437.08 1969.88 2441.59 1954.1 2446.67C1967.63 2342.41 1985.52 2232.8 2007.78 2117.83C2030.04 2002.86 2049.06 1906.21 2064.84 1827.88L2217 1807.59C2164.59 2029.63 2134.02 2166.01 2125.29 2216.73C2116.55 2267.45 2110.77 2302.96 2107.96 2323.25Z" fill="url(#LinearGradient_5)" fill-rule="nonzero" opacity="1" stroke="none" vectornator:layerName="path"/>
<path d="M2427.37 1829.57C2439.77 1828.44 2454.28 1827.03 2470.91 1825.34C2487.53 1823.65 2503.88 1822.1 2519.94 1820.69C2536 1819.29 2552.76 1817.74 2570.23 1816.04C2555.58 1885.36 2544.03 1940.31 2535.58 1980.89C2527.12 2021.46 2520.36 2053.87 2515.29 2078.1C2510.22 2102.33 2505.71 2124.59 2501.76 2144.88C2492.74 2187.71 2486.83 2215.61 2484.01 2228.57C2475.56 2267.45 2471.33 2292.53 2471.33 2303.8C2471.33 2315.07 2473.72 2323.67 2478.52 2329.59C2483.31 2335.5 2489.79 2338.46 2497.96 2338.46C2506.13 2338.46 2513.46 2334.52 2519.94 2326.63C2526.42 2318.74 2531.77 2309.44 2536 2298.73C2540.22 2288.02 2543.47 2277.03 2545.72 2265.76C2547.97 2254.49 2550.37 2243.08 2552.9 2231.53C2555.44 2219.97 2558.82 2203.91 2563.05 2183.34C2567.28 2162.77 2571.5 2141.36 2575.73 2119.1C2579.96 2096.84 2584.32 2074.15 2588.83 2051.05C2600.67 1991.87 2614.47 1916.92 2630.25 1826.19L2761.28 1817.74L2757.05 1839.71C2750.29 1875.22 2742.82 1916.22 2734.65 1962.71C2726.48 2009.2 2719.01 2049.36 2712.25 2083.17C2694.78 2171.09 2681.82 2233.5 2673.37 2270.41C2664.91 2307.33 2653.22 2337.34 2638.28 2360.44C2623.35 2383.55 2606.02 2402.71 2586.3 2417.92C2548.54 2446.1 2504.86 2460.19 2455.27 2460.19C2424.84 2460.19 2398.63 2451.74 2376.65 2434.83C2351.86 2414.54 2339.46 2387.77 2339.46 2354.52C2339.46 2352.27 2339.46 2350.02 2339.46 2347.76C2339.46 2345.51 2340.16 2337.9 2341.57 2324.94C2342.98 2311.98 2346.22 2288.73 2351.29 2255.2C2356.36 2221.67 2361.86 2186.72 2367.78 2150.38C2373.69 2114.03 2380.03 2077.54 2386.8 2040.9C2393.56 2004.27 2399.76 1971.02 2405.39 1941.15C2417.79 1876.91 2425.12 1839.71 2427.37 1829.57Z" fill="url(#LinearGradient_6)" fill-rule="nonzero" opacity="1" stroke="none" vectornator:layerName="path"/>
<path d="M2657.68 2445.82C2716.85 2182.64 2757.43 1978.63 2779.41 1833.8C2841.4 1815.2 2887.89 1805.9 2918.89 1805.9C2949.88 1805.9 2974.26 1810.27 2992.01 1819C3009.76 1827.74 3024.27 1839.43 3035.55 1854.08C3055.27 1880.57 3065.13 1918.89 3065.13 1969.05C3065.13 2001.17 3059.21 2032.31 3047.38 2062.46C3035.55 2092.61 3019.77 2119.38 3000.04 2142.77C2980.32 2166.15 2957.49 2184.75 2931.57 2198.56C2905.65 2212.37 2878.88 2219.27 2851.26 2219.27L2841.96 2219.27C2831.26 2266.61 2819.7 2332.26 2807.3 2416.23L2657.68 2445.82ZM2899.45 1910.72C2884.79 1992.44 2871.55 2064.86 2859.72 2127.97C2880 2122.9 2898.88 2106.56 2916.35 2078.94C2935.51 2048.51 2945.09 2014.14 2945.09 1975.81C2945.09 1954.4 2940.3 1938.2 2930.72 1927.21C2921.14 1916.22 2910.72 1910.72 2899.45 1910.72Z" fill="url(#LinearGradient_7)" fill-rule="nonzero" opacity="1" stroke="none" vectornator:layerName="path"/>
</g>
</g>
</g>
<g id="Arrow" vectornator:layerName="Arrow">
<g filter="url(#Filter_2)" vectornator:layerName="g" vectornator:shadowAngle="-3.14159" vectornator:shadowColor="#4b390e" vectornator:shadowOffset="30" vectornator:shadowOpacity="1" vectornator:shadowRadius="0">
<g opacity="1" vectornator:layerName="Group 1">
<g opacity="1" vectornator:layerName="Group 1">
<path d="M1555.01 1164.57L1402.28 1497.2L1527.1 1721.66L1707.22 1720.7L1715.92 1163.92L1555.01 1164.57ZM2285.03 1163.92L2125.08 1164.9C2125.08 1164.9 2130.8 1531.14 2132.97 1670.33C2135.15 1809.53 2133.77 1721.68 2133.77 1721.68L2313.89 1722.65L2437.79 1496.59L2285.03 1163.92Z" fill="url(#LinearGradient_8)" fill-rule="nonzero" opacity="1" stroke="none" vectornator:layerName="path"/>
</g>
</g>
<path d="M1923.37 375.934L2437.67 1496.85C2437.67 1496.85 2648.43 1132.13 2698.75 1048.39L2309.37 375.561L1923.37 375.934ZM1918.06 376.063L1530.62 376.952L1141.24 1049.82C1191.56 1133.56 1402.32 1498.28 1402.32 1498.28L1918.06 376.063Z" fill="url(#LinearGradient_9)" fill-rule="nonzero" opacity="1" stroke="none" vectornator:layerName="path"/>
</g>
</g>
<g id="Layer-1" vectornator:layerName="Layer 1">
<g fill="url(#LinearGradient_10)" filter="url(#Filter_3)" stroke="none" vectornator:layerName="Text 1" vectornator:shadowAngle="2.43884" vectornator:shadowColor="#4b390e" vectornator:shadowOffset="30" vectornator:shadowOpacity="1" vectornator:shadowRadius="0">
<path d="M1167.78 2710.52C1157.82 2665.98 1140.53 2643.72 1115.93 2643.72C1100.69 2643.72 1084.14 2654.41 1066.27 2675.8C1048.4 2697.19 1031.55 2724.58 1015.73 2757.98C979.988 2835.91 960.945 2912.37 958.601 2987.37C958.601 3024.87 964.167 3051.53 975.3 3067.35C986.433 3083.17 999.324 3091.08 1013.97 3091.08C1028.62 3091.08 1042.39 3088.01 1055.28 3081.85C1068.17 3075.7 1079.6 3067.35 1089.56 3056.81C1113 3032.2 1125.3 3003.19 1126.47 2969.79L1030.67 2983.86L1047.37 2895.09C1129.99 2884.54 1204.11 2873.41 1269.73 2861.69C1265.63 2922.63 1253.62 2975.8 1233.7 3021.21C1213.78 3066.62 1189.9 3104.56 1162.07 3135.03C1134.24 3165.5 1104.21 3188.35 1071.98 3203.58C1039.75 3218.82 1010.9 3226.43 985.408 3226.43C959.919 3226.43 937.214 3221.6 917.292 3211.93C897.371 3202.26 880.085 3187.47 865.437 3167.55C833.796 3125.36 817.976 3066.03 817.976 2989.57C817.976 2913.1 829.109 2846.16 851.374 2788.74C873.64 2731.32 901.619 2683.42 935.31 2645.04C969.001 2606.66 1005.33 2578.09 1044.29 2559.34C1083.26 2540.59 1117.1 2531.22 1145.81 2531.22C1174.52 2531.22 1197.66 2535.47 1215.24 2543.96C1232.82 2552.46 1247.18 2563.74 1258.31 2577.8C1280.57 2604.75 1291.71 2641.08 1291.71 2686.79L1167.78 2710.52Z"/>
<path d="M1400.69 3050.65L1364.66 3179.85C1351.18 3181.61 1335.51 3183.66 1317.63 3186C1299.76 3188.35 1282.04 3190.55 1264.46 3192.6C1246.88 3194.65 1228.72 3196.84 1209.97 3199.19C1233.99 3119.5 1254.35 3052.12 1271.05 2997.04C1287.75 2941.96 1301.37 2896.7 1311.92 2861.25C1322.47 2825.8 1332.87 2790.64 1343.12 2755.78C1353.38 2720.92 1363.34 2687.23 1373.01 2654.71C1382.67 2622.19 1391.32 2592.45 1398.93 2565.5C1507.33 2557.88 1589.95 2548.5 1646.78 2537.37C1641.51 2595.38 1637.12 2663.93 1633.6 2743.04C1625.98 2900.65 1619.54 3045.97 1614.27 3178.97C1596.69 3181.9 1579.55 3184.54 1562.85 3186.88C1546.15 3189.23 1528.86 3191.86 1510.99 3194.79C1493.12 3197.72 1476.86 3200.36 1462.21 3202.7C1468.66 3146.45 1474.23 3095.77 1478.91 3050.65L1400.69 3050.65ZM1421.78 2961L1486.82 2956.61C1486.82 2953.09 1487.26 2947.09 1488.14 2938.59C1489.02 2930.1 1490.05 2920.28 1491.22 2909.15C1495.91 2846.45 1500.89 2788.15 1506.16 2734.25L1512.31 2656.02L1498.25 2656.9L1421.78 2961Z"/>
<path d="M1937.7 2889.81C2005.09 2708.76 2049.62 2595.38 2071.3 2549.68C2101.18 2546.16 2125.64 2542.94 2144.69 2540.01C2163.73 2537.08 2179.99 2534.59 2193.46 2532.54C2206.94 2530.49 2221.59 2528 2237.41 2525.07C2208.7 2694.99 2184.68 2909.15 2165.34 3167.55L2008.02 3195.67C2008.02 3174.58 2010.65 3140.59 2015.93 3093.72L2028.23 2988.25C2034.09 2934.93 2039.66 2893.62 2044.93 2864.32L2037.02 2864.32C2028.82 2889.52 2019.59 2916.03 2009.33 2943.87C1999.08 2971.7 1988.68 2999.97 1978.13 3028.68C1967.59 3057.39 1957.19 3085.66 1946.93 3113.49C1936.68 3141.33 1927.74 3167.84 1920.12 3193.04C1899.03 3193.62 1881.16 3194.5 1866.51 3195.67L1813.78 3198.31L1842.78 2864.32L1829.6 2864.32C1828.43 2871.94 1825.35 2884.98 1820.37 2903.44C1815.39 2921.89 1809.82 2942.99 1803.67 2966.72C1797.52 2990.45 1790.78 3015.06 1783.45 3040.55C1776.13 3066.03 1769.25 3089.62 1762.8 3111.3C1752.25 3148.8 1744.64 3174.87 1739.95 3189.52L1591.41 3199.19C1686.92 2910.91 1751.67 2699.97 1785.65 2566.38C1819.05 2566.38 1850.4 2564.62 1879.69 2561.1C1908.99 2557.59 1940.63 2554.36 1974.62 2551.43C1972.86 2564.32 1970.95 2578.97 1968.9 2595.38C1966.85 2611.79 1964.51 2629.07 1961.87 2647.23C1959.24 2665.4 1956.45 2684 1953.52 2703.05C1950.59 2722.09 1946.93 2746.7 1942.54 2776.87C1938.14 2807.05 1932.43 2844.7 1925.4 2889.81L1937.7 2889.81Z"/>
<path d="M2182.92 3205.34L2300.69 2565.5L2585.46 2540.89C2581.35 2554.36 2577.84 2567.4 2574.91 2580C2571.98 2592.6 2569.05 2605.05 2566.12 2617.35C2563.19 2629.66 2560.85 2640.5 2559.09 2649.87C2541.51 2651.63 2517.49 2652.51 2487.02 2652.51L2426.37 2652.51L2394.73 2814.23C2426.96 2812.47 2453.91 2811.3 2475.59 2810.71C2497.27 2810.13 2511.34 2809.54 2517.78 2808.95C2515.44 2825.95 2513.24 2842.5 2511.19 2858.61C2509.14 2874.73 2506.65 2891.28 2503.72 2908.27C2497.27 2908.86 2487.31 2909.3 2473.84 2909.59C2460.36 2909.88 2446.3 2910.32 2431.65 2910.91C2417 2911.49 2400.59 2912.08 2382.43 2912.66L2351.67 3078.78L2482.62 3057.68L2473.84 3160.52L2182.92 3205.34Z"/>
<path d="M2811.34 2744.79C2814.27 2733.07 2815.73 2720.77 2815.73 2707.88C2815.73 2694.99 2812.51 2684.59 2806.06 2676.68C2799.62 2668.77 2792.73 2664.81 2785.41 2664.81C2778.08 2664.81 2770.91 2666.57 2763.87 2670.09C2756.84 2673.6 2749.81 2678.29 2742.78 2684.15C2726.37 2697.63 2718.17 2712.13 2718.17 2727.65C2718.17 2743.18 2722.27 2755.78 2730.48 2765.45C2738.68 2775.12 2748.79 2784.05 2760.8 2792.25C2772.81 2800.46 2785.85 2808.95 2799.91 2817.74C2813.97 2826.53 2827.16 2837.66 2839.46 2851.14C2867.59 2883.95 2881.65 2927.61 2881.65 2982.1C2881.65 3047.72 2857.62 3101.92 2809.58 3144.7C2763.87 3185.71 2706.16 3206.22 2636.43 3206.22C2584.87 3206.22 2537.7 3179.27 2494.93 3125.36L2561.73 2994.4C2569.93 3010.81 2585.75 3025.75 2609.19 3039.23C2632.62 3053.29 2650.2 3060.32 2661.92 3060.32C2673.64 3060.32 2683.45 3059.15 2691.36 3056.81C2699.27 3054.46 2706.45 3050.95 2712.9 3046.26C2727.55 3035.71 2734.87 3022.97 2734.87 3008.03C2734.87 2993.08 2730.18 2979.46 2720.81 2967.16C2711.43 2954.85 2699.86 2943.13 2686.09 2932C2672.32 2920.87 2657.38 2909.59 2641.27 2898.16C2625.15 2886.74 2610.36 2874.58 2596.88 2861.69C2564.07 2832.39 2547.66 2801.63 2547.66 2769.4C2547.66 2737.18 2556.89 2707.59 2575.35 2680.63C2593.81 2653.68 2616.95 2630.39 2644.78 2610.76C2672.61 2591.13 2703.08 2575.6 2736.19 2564.18C2769.29 2552.75 2797.27 2547.04 2820.12 2547.04C2842.98 2547.04 2861.58 2549.09 2875.94 2553.19C2890.29 2557.29 2902.74 2563.45 2913.29 2571.65C2936.14 2590.4 2947.57 2617.94 2947.57 2654.27C2947.57 2663.06 2946.83 2671.55 2945.37 2679.75C2943.9 2687.96 2942.59 2697.04 2941.41 2707L2811.34 2744.79Z"/>
</g>
</g>
</svg>
